<?xml version="1.0" encoding="UTF-8"?>
<svg xmlns="http://www.w3.org/2000/svg" xmlns:xlink="http://www.w3.org/1999/xlink" width="531.63pt" height="140.66pt" viewBox="0 0 531.63 140.66" version="1.1">
<defs>
<clipPath id="clip1">
  <path d="M 474 79 L 531.628906 79 L 531.628906 134 L 474 134 Z M 474 79 "/>
</clipPath>
<clipPath id="clip2">
  <path d="M 0 0 L 141 0 L 141 140.660156 L 0 140.660156 Z M 0 0 "/>
</clipPath>
</defs>
<g id="surface1">
<path style=" stroke:none;fill-rule:nonzero;fill:rgb(1.599121%,41.598511%,70.599365%);fill-opacity:1;" d="M 503.558594 49.820313 C 507.558594 49.820313 510.769531 47.890625 510.769531 43.96875 L 510.769531 7.25 L 528.230469 7.25 L 528.230469 45.589844 C 528.230469 57.210938 520.558594 61.109375 510.480469 61.109375 L 481.378906 61.109375 C 479.117188 61.097656 477.003906 59.976563 475.71875 58.109375 L 470.660156 49.808594 Z M 360.628906 49.820313 C 364.628906 49.820313 367.820313 47.890625 367.820313 43.96875 L 367.820313 7.25 L 385.230469 7.25 L 385.230469 45.589844 C 385.230469 57.210938 377.539063 61.109375 367.46875 61.109375 L 338.371094 61.109375 C 336.109375 61.082031 334.003906 59.964844 332.710938 58.109375 L 327.648438 49.808594 Z M 427.628906 20.25 L 404.039063 61.148438 L 383.429688 61.148438 L 416.339844 7.25 L 438.839844 7.25 L 471.71875 61.109375 L 451.230469 61.109375 L 445.699219 51.507813 L 415.230469 51.507813 L 420.230469 43.25 C 421.511719 41.390625 423.621094 40.269531 425.878906 40.25 L 439.101563 40.25 L 427.578125 20.25 Z M 284.628906 20.25 L 261.019531 61.148438 L 240.460938 61.148438 L 273.378906 7.25 L 295.878906 7.25 L 328.769531 61.109375 L 308.230469 61.109375 L 302.710938 51.507813 L 272.230469 51.507813 L 277.289063 43.25 C 278.585938 41.390625 280.695313 40.273438 282.960938 40.25 L 296.160156 40.25 Z M 186.589844 38.421875 L 186.589844 61.089844 L 191.589844 52.820313 C 192.875 50.953125 194.992188 49.832031 197.261719 49.820313 L 216.46875 49.820313 C 220.109375 49.878906 222.988281 47.300781 222.988281 44.148438 C 222.988281 41 220.171875 38.460938 216.46875 38.460938 Z M 186.589844 38.421875 L 191.589844 30.160156 C 192.875 28.292969 194.992188 27.171875 197.261719 27.160156 L 216.730469 27.160156 C 220.210938 27.160156 223.039063 25.570313 223.039063 22.871094 C 223.039063 20.171875 220.230469 18.550781 216.730469 18.550781 L 186.589844 18.550781 Z M 169.101563 61.109375 L 169.101563 7.25 L 216.730469 7.25 C 226.550781 7.25 242.351563 8.578125 242.351563 21.378906 C 242.351563 27.671875 236.828125 32.109375 230.410156 33.71875 C 238.410156 36.121094 242.351563 40.539063 242.351563 46.589844 C 242.351563 59.789063 227.351563 61.050781 216.730469 61.089844 L 169.101563 61.089844 L 169.101563 61.109375 "/>
<path style=" stroke:none;fill-rule:nonzero;fill:rgb(1.599121%,41.598511%,70.599365%);fill-opacity:1;" d="M 169 79.039063 L 212.121094 79.039063 L 212.121094 92.128906 L 183.941406 92.128906 L 183.941406 104.96875 L 209.421875 104.96875 L 209.421875 117.359375 L 183.941406 117.359375 L 183.941406 132.941406 L 169 132.941406 L 169 79.039063 "/>
<path style=" stroke:none;fill-rule:nonzero;fill:rgb(1.599121%,41.598511%,70.599365%);fill-opacity:1;" d="M 222.28125 79.039063 L 237.28125 79.039063 L 237.28125 132.941406 L 222.28125 132.941406 L 222.28125 79.039063 "/>
<path style=" stroke:none;fill-rule:nonzero;fill:rgb(1.599121%,41.598511%,70.599365%);fill-opacity:1;" d="M 250.230469 79.039063 L 264.171875 79.039063 L 286.351563 107.53125 L 286.351563 79.039063 L 301.128906 79.039063 L 301.128906 132.941406 L 288.039063 132.941406 L 265.039063 103.378906 L 265.039063 132.941406 L 250.230469 132.941406 L 250.230469 79.039063 "/>
<path style=" stroke:none;fill-rule:nonzero;fill:rgb(1.599121%,41.598511%,70.599365%);fill-opacity:1;" d="M 309.679688 124.929688 L 317.988281 115 C 322.894531 119.105469 329.070313 121.394531 335.46875 121.46875 C 339.46875 121.46875 341.628906 120.078125 341.628906 117.769531 L 341.628906 117.621094 C 341.628906 115.390625 339.859375 114.148438 332.550781 112.460938 C 321.070313 109.839844 312.21875 106.609375 312.21875 95.519531 L 312.21875 95.371094 C 312.21875 85.371094 320.148438 78.121094 333.089844 78.121094 C 342.25 78.121094 349.410156 80.578125 355.261719 85.28125 L 347.789063 95.828125 C 342.859375 92.359375 337.480469 90.507813 332.699219 90.507813 C 329.078125 90.507813 327.308594 92.050781 327.308594 93.980469 L 327.308594 94.128906 C 327.308594 96.597656 329.160156 97.667969 336.628906 99.371094 C 349.03125 102.058594 356.71875 106.070313 356.71875 116.160156 L 356.71875 116.308594 C 356.71875 127.308594 348.019531 133.859375 334.941406 133.859375 C 325.378906 133.859375 316.300781 130.859375 309.679688 124.929688 "/>
<path style=" stroke:none;fill-rule:nonzero;fill:rgb(1.599121%,41.598511%,70.599365%);fill-opacity:1;" d="M 367.039063 79.039063 L 410.390625 79.039063 L 410.390625 91.75 L 381.828125 91.75 L 381.828125 99.910156 L 407.699219 99.910156 L 407.699219 111.691406 L 381.828125 111.691406 L 381.828125 120.25 L 410.78125 120.25 L 410.78125 132.949219 L 367.039063 132.949219 L 367.039063 79.039063 "/>
<path style=" stroke:none;fill-rule:nonzero;fill:rgb(1.599121%,41.598511%,70.599365%);fill-opacity:1;" d="M 446.230469 104.921875 C 451.320313 104.921875 454.230469 102.449219 454.230469 98.519531 L 454.230469 98.371094 C 454.230469 94.128906 451.148438 91.980469 446.148438 91.980469 L 436.371094 91.980469 L 436.371094 104.921875 Z M 421.480469 79.039063 L 446.96875 79.039063 C 455.210938 79.039063 460.910156 81.199219 464.519531 84.890625 C 467.679688 87.96875 469.300781 92.128906 469.300781 97.441406 L 469.300781 97.597656 C 469.300781 105.839844 464.910156 111.300781 458.210938 114.148438 L 471.070313 132.941406 L 453.820313 132.941406 L 442.960938 116.621094 L 436.421875 116.621094 L 436.421875 132.941406 L 421.480469 132.941406 L 421.480469 79.039063 "/>
<g clip-path="url(#clip1)" clip-rule="nonzero">
<path style=" stroke:none;fill-rule:nonzero;fill:rgb(1.599121%,41.598511%,70.599365%);fill-opacity:1;" d="M 474.070313 79.039063 L 490.78125 79.039063 L 503.019531 113.148438 L 515.230469 79.039063 L 531.628906 79.039063 L 509.761719 133.328125 L 495.941406 133.328125 L 474.070313 79.039063 "/>
</g>
<g clip-path="url(#clip2)" clip-rule="nonzero">
<path style=" stroke:none;fill-rule:nonzero;fill:rgb(1.599121%,41.598511%,70.599365%);fill-opacity:1;" d="M 70.332031 0 C 31.488281 0 0 31.488281 0 70.328125 C 0 109.171875 31.488281 140.660156 70.332031 140.660156 C 109.171875 140.660156 140.660156 109.171875 140.660156 70.328125 C 140.660156 31.496094 109.183594 0.0117188 70.351563 0 Z M 114.230469 88.347656 C 114.230469 107.519531 92.808594 109.351563 77.660156 109.441406 L 64.03125 109.441406 L 64.03125 92.179688 L 91.128906 92.179688 L 91.128906 79.007813 L 64.03125 79.007813 L 64.03125 61.109375 L 94.03125 61.109375 L 94.03125 47.191406 L 48.140625 47.191406 L 48.140625 109.46875 L 30.609375 109.46875 L 30.609375 31.191406 L 77.679688 31.191406 C 91.679688 31.191406 114.25 33.191406 114.25 51.710938 C 114.25 60.871094 106.398438 67.609375 97.25 69.917969 C 108.589844 73.417969 114.230469 79.039063 114.230469 88.347656 "/>
</g>
</g>
</svg>
